<svg xmlns="http://www.w3.org/2000/svg" id="Layer_1" data-name="Layer 1" viewBox="0 0 100 100" stroke='#00e5ff' stroke-width='3' fill="#00e5ff"><defs><style>      .cls-1 {        fill: #00e5ff;      }    </style></defs><path class="cls-1" d="M30.2,77c-3.5-.3-6.1-3.1-6.3-6.7,0-.2,0-.6,0-.9,0-.5,0-1,0-1.3,0-.1,0-.3-.2-.4h0s-3.7,0-3.7,0c-1.9,0-4-2.1-4.1-4.1.1-1.8,0-3.8,0-5.7,0-2-.1-4.1,0-6.1.1-1.9,2-4.1,4.1-4.1h3.8l.2-.4v-.6c0-1.3,0-2.5.4-3.8.8-2.2,2.7-3.9,5.1-4.5,2.2,0,4.6-.1,7.8-.1s2.9,0,4.3,0c1.4,0,2.9,0,4.3,0s1.9,0,2.8,0h0s.5-.2.5-.2v-6h-.1c-.2-.2-.5-.3-.8-.4-.3-.1-.5-.2-.8-.4-1.9-1.2-2.6-3.6-1.7-5.7.7-1.7,2.4-2.8,4.3-2.8s3,.8,3.8,2.1c.8,1.3,1,2.8.4,4.2-.5,1.4-1.7,2.4-3.2,2.8h-.2v6.4h18.7c3.7.3,6.3,3,6.5,6.7,0,.3,0,.5,0,.8,0,.4,0,.8,0,1.2,0,.3.2.5.5.5.3,0,.5,0,.8,0s.7,0,1,0c.3,0,.7,0,1,0s.3,0,.5,0c2.4.2,4.1,2,4.3,4.5.1,2.2,0,4.6,0,6.9,0,1.5,0,3.2,0,4.7-.2,1.9-2.2,3.9-4.1,3.9h-3.9v.2c-.1.5-.1,1-.1,1.5s0,.6,0,.9c-.2,3.5-2.9,6.2-6.4,6.5H30.2ZM59.2,63.4c.3,0,.7.4.7.7v10.9l.3.3h9.7c.2,0,1-.2,1-.2,1.9-.6,3.3-2.4,3.5-4.4v-25.6c-.2-2.7-2.3-4.6-5-4.8H30.7c-2.8.2-4.8,2.1-5.1,4.8,0,3.4,0,6.8,0,10.1,0,5.2,0,10.6,0,15.9.4,2.2,2.3,4.1,4.4,4.3h9.8s.3-.3.3-.3v-10.7s0-.3.1-.4c.1-.3.3-.4.7-.5h18.3ZM41.8,65.4v9.6l.3.3h15.8l.3-.3v-9.6l-.3-.3h-15.8l-.3.3ZM76.1,49.9v15.8l.3.3h3.6c.1,0,.8-.2.8-.2,1-.4,1.7-1.4,1.7-2.6.1-1.9,0-3.9,0-5.9,0-1.7-.1-3.5,0-5.2,0-1.1-1.2-2.7-2.5-2.7h-4v.3c0,0,0,.2,0,.2ZM19.9,49.4c-1.3.3-2.2,1.2-2.4,2.3v11.7c.1.9.6,1.7,1.3,2.1.1,0,.9.4,1.2.4h3.6l.3-.3v-16.1l-.3-.3h-3.7ZM50,24.7c-1.2,0-2.3.8-2.8,2-.4,1.1-.1,2.3.8,3.1.6.5,1.3.8,1.9.8h0c1.2,0,2.4-.8,2.8-2.1.4-1.1,0-2.3-.9-3.1-.6-.5-1.2-.7-1.9-.7Z"></path><path class="cls-1" d="M60.6,57.9c-1,0-2-.3-2.9-.9-1.4-.8-2.3-2.2-2.6-3.8-.3-1.6.2-3.3,1.2-4.6,1-1.3,2.6-2,4.2-2s3.8,1,4.9,2.7c1.1,1.8,1.1,3.8.1,5.6-1,1.8-2.9,3-4.9,3ZM60.6,48.4c-1.4,0-2.7.7-3.4,2-.7,1.2-.7,2.7,0,3.9.7,1.2,2,1.9,3.3,1.9h0c.3,0,.6,0,1-.1,1.3-.3,2.4-1.4,2.8-2.8.4-1.4,0-2.8-1-3.7-.8-.8-1.8-1.2-2.8-1.2Z"></path><path class="cls-1" d="M39.3,57.9c-1.9,0-3.7-1-4.7-2.6-1-1.6-1.1-3.6-.3-5.4.8-1.7,2.3-2.9,4.1-3.2.3,0,.6,0,.9,0,2.3,0,4.3,1.4,5.2,3.6.9,2.2.3,4.5-1.4,6.1-1.1,1-2.4,1.6-3.9,1.6ZM39.1,48.4c-2.6.1-3.7,2.1-3.6,3.9,0,1.9,1.3,3.9,3.6,3.9h0c.4,0,.7,0,1.1-.1,2.3-.6,3.1-2.5,2.9-4.2-.2-1.6-1.5-3.4-3.8-3.4s-.2,0-.2,0Z"></path></svg>